,
Brought to you by  http://www.scenetime.com/signup.php
 
 Hottest scene tracker on the net !!!   
 
No fake torrents from scenebalance 
shame on those who comment fake before downloading my torrents

    seed back for speed


 



...................................NFO:.................................................SCR0N	



Chalet.Girl.2011.BDRip.XviD.AC3-5.1-SCR0N
   General
      Complete name : Chalet.Girl.2011.BDRip.XviD.AC3-5.1-SCR0N
      Format : AVI
      Format/Info : Audio Video Interleave
      Format profile : OpenDML
      File size : 2.69 GiB
      Duration : 1h 32mn
      Overall bit rate : 4 165 Kbps
      Writing application : AVI-Mux GUI 1.17.8.3, Feb 16 201019:42:50
   Video #0
      ID : 0
      Format : AVC
      Format/Info : Advanced Video Codec
      Format profile : Baseline@L4.0
      Format settings, CABAC : No
      Format settings, ReFrames : 1 frame
      Codec ID : H264
      Duration : 1h 32mn
      Bit rate : 3 711 Kbps
      Width : 1 920 pixels
      Height : 1 080 pixels
      Display aspect ratio : 16:9
      Frame rate : 25.000 fps
      Original frame rate : 24.000 fps
      Resolution : 24 bits
      Colorimetry : 4:2:0
      Scan type : Progressive
      Bits/(Pixel*Frame) : 0.072
      Stream size : 2.40 GiB (89%)
   Audio #1
      ID : 1
      Format : AC-3
      Format/Info : Audio Coding 3
      Codec ID : 2000
      Duration : 1h 32mn
      Bit rate mode : Constant
      Bit rate : 448 Kbps
      Channel(s) : 6 channels
      Channel positions : Front: L C R, Surround: L R, LFE
      Sampling rate : 48.0 KHz
      Stream size : 297 MiB (11%)
      Alignment : Aligned on interleaves
      Interleave, duration : 64 ms (1.60 video frames)
      Interleave, preload duration : 192 ms
      Title : AC3-5.1-SCR0N

[img]http://img155.imageshack.us/img155/7283/chalet3.jpg[/img]
[img]http://img577.imageshack.us/img577/7726/chalet4.jpg[/img]
[img]http://img845.imageshack.us/img845/6287/chalet1.jpg[/img]
[img]http://img852.imageshack.us/img852/2628/chalet2.jpg[/img]
[img]http://img21.imageshack.us/img21/9036/chalet5t.jpg[/img]

[img]http://img62.imageshack.us/img62/5656/screensum.jpg[/img]